Land_normalized_pl02_filtered_grf
version=1
nRows=15
nColumns=37
inDegrees=yes
endheader
time		1_ground_force_vx		1_ground_force_vy		1_ground_force_vz		1_ground_force_px		1_ground_force_py		1_ground_force_pz		1_ground_torque_x		1_ground_torque_y		1_ground_torque_z		2_ground_force_vx		2_ground_force_vy		2_ground_force_vz		2_ground_force_px		2_ground_force_py		2_ground_force_pz		2_ground_torque_x		2_ground_torque_y		2_ground_torque_z		3_ground_force_vx		3_ground_force_vy		3_ground_force_vz		3_ground_force_px		3_ground_force_py		3_ground_force_pz		3_ground_torque_x		3_ground_torque_y		3_ground_torque_z		4_ground_force_vx		4_ground_force_vy		4_ground_force_vz		4_ground_force_px		4_ground_force_py		4_ground_force_pz		4_ground_torque_x		4_ground_torque_y		4_ground_torque_z		
1.172833		-58.102037		805.778133		126.559226		0.130545		0.000000		0.231250		-1.449147		20.097247		3.156564		50.890932		963.818175		220.036352		-0.202222		0.000000		0.231442		1.608600		30.465141		6.955087		0.106342		-0.103640		-0.706028		0.413086		1.262724		1.873426		0.018951		-0.015843		0.036463		-0.873227		-1.694980		-2.835634		-0.353992		1.256834		1.901265		0.031025		-0.001800		0.032228		
1.175763		-57.830613		810.828150		121.411744		0.130828		0.000000		0.232155		-1.447390		20.293496		3.038701		55.842251		973.050650		216.746557		-0.202882		0.000000		0.232478		1.762063		30.703966		6.839296		0.187417		-0.080041		-0.650501		0.413058		1.262726		1.873482		0.019273		-0.017335		0.036840		-0.867611		-1.696309		-2.888972		-0.353999		1.256846		1.901297		0.031792		-0.000696		0.032189		
1.178692		-57.044500		814.932207		117.379666		0.130926		0.000000		0.232777		-1.436945		20.528089		2.956781		61.808738		982.738484		212.148906		-0.203600		0.000000		0.233702		1.945790		30.937470		6.678638		0.274344		-0.067950		-0.617344		0.413028		1.262726		1.873529		0.019257		-0.018677		0.036992		-0.883459		-1.698866		-2.927637		-0.354001		1.256856		1.901313		0.032285		0.000186		0.031782		
1.181621		-55.757116		817.664882		114.595537		0.130833		0.000000		0.233093		-1.417857		20.792578		2.914071		68.671827		992.639932		206.317741		-0.204365		0.000000		0.235086		2.155373		31.155618		6.475623		0.352703		-0.069534		-0.608387		0.412994		1.262724		1.873567		0.018856		-0.019820		0.036804		-0.909598		-1.708874		-2.955106		-0.354000		1.256864		1.901316		0.032347		0.000915		0.031062		
1.184551		-54.016179		818.720123		113.103612		0.130557		0.000000		0.233097		-1.390380		21.073931		2.911296		76.264542		1002.528798		199.408410		-0.205164		0.000000		0.236593		2.384934		31.350970		6.235881		0.410710		-0.084617		-0.620909		0.412958		1.262719		1.873597		0.018079		-0.020676		0.036211		-0.935515		-1.730809		-2.973806		-0.353999		1.256870		1.901307		0.031922		0.001507		0.030155		
1.187480		-51.893257		817.922673		112.860546		0.130111		0.000000		0.232801		-1.354967		21.356515		2.946866		84.379727		1012.187821		191.650863		-0.205978		0.000000		0.238173		2.627592		31.519633		5.968029		0.441833		-0.110318		-0.648588		0.412924		1.262713		1.873617		0.016969		-0.021150		0.035204		-0.953438		-1.765701		-2.984068		-0.353999		1.256875		1.901290		0.031080		0.001916		0.029236		
1.190409		-49.471320		815.229081		113.741654		0.129514		0.000000		0.232230		-1.312310		21.625394		3.017202		92.781692		1021.403391		183.341296		-0.206790		0.000000		0.239776		2.876117		31.662290		5.683368		0.446053		-0.141014		-0.683123		0.412891		1.262705		1.873626		0.015580		-0.021180		0.033834		-0.959628		-1.810344		-2.984141		-0.354003		1.256877		1.901266		0.029995		0.002066		0.028490		
1.193338		-46.835580		810.726182		115.551931		0.128794		0.000000		0.231422		-1.263290		21.867731		3.116793		101.222616		1029.967532		174.825616		-0.207578		0.000000		0.241345		3.123720		31.784765		5.395121		0.429386		-0.168941		-0.716125		0.412863		1.262696		1.873626		0.013964		-0.020773		0.032206		-0.954930		-1.857966		-2.971123		-0.354011		1.256877		1.901237		0.028912		0.001892		0.028079		
1.196268		-44.065454		804.597122		118.057897		0.127979		0.000000		0.230419		-1.208820		22.072167		3.238644		109.460315		1037.674792		166.470094		-0.208323		0.000000		0.242825		3.364693		31.897061		5.117128		0.401558		-0.185462		-0.740671		0.412839		1.262686		1.873617		0.012161		-0.019990		0.030468		-0.944055		-1.899927		-2.942431		-0.354023		1.256875		1.901205		0.028078		0.001374		0.028106		
1.199197		-41.231512		797.104742		121.009814		0.127098		0.000000		0.229267		-1.149838		22.229293		3.374680		117.268224		1044.325514		158.633598		-0.209009		0.000000		0.244164		3.594584		32.011390		4.862551		0.373304		-0.182784		-0.751984		0.412822		1.262673		1.873600		0.010209		-0.018928		0.028797		-0.934211		-1.927727		-2.897209		-0.354038		1.256872		1.901168		0.027692		0.000535		0.028603		
1.202126		-38.391416		788.566781		124.166464		0.126182		0.000000		0.228017		-1.087305		22.333558		3.516617		124.442128		1049.731526		151.635397		-0.209619		0.000000		0.245321		3.809983		32.139112		4.642546		0.353806		-0.155864		-0.747423		0.412811		1.262660		1.873574		0.008163		-0.017671		0.027382		-0.933184		-1.934861		-2.836892		-0.354056		1.256866		1.901127		0.027872		-0.000578		0.029524		
1.205056		-35.587815		779.328857		127.314885		0.125262		0.000000		0.226715		-1.022172		22.384349		3.656819		130.803338		1053.725019		145.725950		-0.210145		0.000000		0.246264		4.007981		32.287477		4.465228		0.349178		-0.103946		-0.726119		0.412807		1.262646		1.873540		0.006112		-0.016275		0.026391		-0.947346		-1.918028		-2.764795		-0.354073		1.256859		1.901081		0.028634		-0.001933		0.030767		
1.207985		-32.850048		769.736711		130.282383		0.124364		0.000000		0.225406		-0.955317		22.384842		3.788765		136.200223		1056.168328		141.066156		-0.210577		0.000000		0.246973		4.185571		32.457119		4.335105		0.362253		-0.031150		-0.688691		0.412810		1.262631		1.873498		0.004188		-0.014752		0.025951		-0.980097		-1.877522		-2.685140		-0.354088		1.256849		1.901027		0.029893		-0.003535		0.032198		
1.210914		-30.198152		760.111293		132.939162		0.123513		0.000000		0.224128		-0.887539		22.340137		3.907169		140.511566		1056.964872		137.716219		-0.210911		0.000000		0.247441		4.339251		32.640964		4.252921		0.393286		0.054061		-0.637317		0.412818		1.262617		1.873449		0.002562		-0.013101		0.026135		-1.031060		-1.816961		-2.602121		-0.354100		1.256838		1.900967		0.031479		-0.005433		0.033674		
1.213843		-27.645809		750.724099		135.195884		0.122728		0.000000		0.222913		-0.819607		22.256559		4.008130		143.662312		1056.083539		135.625787		-0.211146		0.000000		0.247678		4.465281		32.824935		4.215486		0.440770		0.140481		-0.576001		0.412829		1.262604		1.873391		0.001414		-0.011327		0.026954		-1.096101		-1.742597		-2.519509		-0.354108		1.256826		1.900899		0.033170		-0.007701		0.035052		
